<svg xmlns="http://www.w3.org/2000/svg" width="1400" height="900" viewBox="0 0 1400 900">
  <defs>
    <linearGradient id="bg" x1="0" y1="0" x2="1" y2="1">
      <stop offset="0" stop-color="#0b0b12"/>
      <stop offset="0.55" stop-color="#1a1410"/>
      <stop offset="1" stop-color="#07070a"/>
    </linearGradient>
    <radialGradient id="glow" cx="30%" cy="25%" r="70%">
      <stop offset="0" stop-color="rgba(242,213,138,0.40)"/>
      <stop offset="1" stop-color="rgba(242,213,138,0)"/>
    </radialGradient>
    <linearGradient id="coffee" x1="0" y1="0" x2="0" y2="1">
      <stop offset="0" stop-color="#3b2416"/>
      <stop offset="0.55" stop-color="#2a160d"/>
      <stop offset="1" stop-color="#190f0a"/>
    </linearGradient>
    <filter id="soft" x="-25%" y="-25%" width="150%" height="150%">
      <feGaussianBlur stdDeviation="10"/>
    </filter>
  </defs>

  <rect width="1400" height="900" rx="42" fill="url(#bg)"/>
  <rect width="1400" height="900" rx="42" fill="url(#glow)"/>

  <g opacity="0.22" fill="none" stroke="rgba(255,255,255,0.55)" stroke-width="2">
    <path d="M930 220c-44 74-32 128 10 184" />
    <path d="M1015 260c-34 62-24 108 10 150" />
    <path d="M870 280c-26 52-20 92 7 132" />
  </g>

  <g filter="url(#soft)">
    <path d="M820 220h340l-52 540c-4 42-38 76-80 76h-76c-42 0-76-34-80-76l-52-540Z"
          fill="rgba(255,255,255,0.06)" stroke="rgba(255,255,255,0.14)" stroke-width="2"/>
    <path d="M860 265h260l-40 450c-3 30-28 55-58 55h-66c-30 0-55-25-58-55l-40-450Z"
          fill="url(#coffee)" opacity="0.92"/>
    <path d="M1070 180l-34 48 50 28-230 350"
          stroke="rgba(242,213,138,0.85)" stroke-width="12" stroke-linecap="round" stroke-linejoin="round"/>
  </g>
</svg>

